This is Whale Wars S05 Ep08 Target Acquired in 720P HD


I took KILLERS 720P HD file and edited out the commercials and such. The resulting file is bigger than the original, but I prefer quality over file size, especialy considering this is a re-encode.

The audio is still just a tad off sync throughout the video, but it is a consistent. It is very tolerable. If it still bugs you, use VLC player to offset the audio just a tad.

This was edited and re-encoded using Cyberlink Power Directer 10.

Source:                                  : Whale.Wars.S05E08.720p.HDTV.x264-KILLERS
File size                                : 1.81 GiB
Duration                                 : 42mn 2s
Overall bit rate mode                    : Variable
Overall bit rate                         : 6 172 Kbps
Encoded date                             : UTC 2012-07-23 10:09:23
Tagged date                              : UTC 2012-07-23 10:09:23

Video
ID                                       : 1
Format                                   : AVC
Format/Info                              : Advanced Video Codec
Format profile                           : High@L3.1
Format settings, CABAC                   : Yes
Format settings, ReFrames                : 2 frames
Codec ID                                 : avc1
Codec ID/Info                            : Advanced Video Coding
Duration                                 : 42mn 2s
Bit rate mode                            : Variable
Bit rate                                 : 5 976 Kbps
Maximum bit rate                         : 6 500 Kbps
Width                                    : 1 280 pixels
Height                                   : 720 pixels
Display aspect ratio                     : 16:9
Frame rate mode                          : Constant
Frame rate                               : 30.000 fps
Color space                              : YUV
Chroma subsampling                       : 4:2:0
Bit depth                                : 8 bits
Scan type                                : Progressive
Bits/(Pixel*Frame)                       : 0.216
Stream size                              : 1.75 GiB (97%)
Language                                 : English
Encoded date                             : UTC 2012-07-23 10:09:23
Tagged date                              : UTC 2012-07-23 10:09:23

Audio
ID                                       : 2
Format                                   : AAC
Format/Info                              : Advanced Audio Codec
Format profile                           : LC
Codec ID                                 : 40
Duration                                 : 42mn 1s
Source duration                          : 42mn 1s
Bit rate mode                            : Constant
Bit rate                                 : 192 Kbps
Channel(s)                               : 2 channels
Channel positions                        : Front: L R
Sampling rate                            : 48.0 KHz
Compression mode                         : Lossy
Stream size                              : 57.7 MiB (3%)
Source stream size                       : 57.7 MiB (3%)
Language                                 : English
Encoded date                             : UTC 2012-07-23 10:09:23
Tagged date                              : UTC 2012-07-23 10:09:23
mdhd_Duration                            : 2521980